<?xml version="1.0" standalone="no"?>
<!DOCTYPE svg PUBLIC "-//W3C//DTD SVG 20010904//EN"
 "http://www.w3.org/TR/2001/REC-SVG-20010904/DTD/svg10.dtd">
<svg version="1.0" xmlns="http://www.w3.org/2000/svg"
 width="1568.000000pt" height="1568.000000pt" viewBox="0 0 1568.000000 1568.000000"
 preserveAspectRatio="xMidYMid meet">
<metadata>
Created by potrace 1.14, written by Peter Selinger 2001-2017
</metadata>
<g transform="translate(0.000000,1568.000000) scale(0.100000,-0.100000)"
fill="#000000" stroke="none">
<path d="M7812 11972 c-13 -15 -81 -87 -150 -161 -70 -74 -138 -146 -152 -161
-14 -15 -83 -89 -155 -164 -71 -76 -146 -155 -165 -176 -19 -20 -93 -99 -165
-175 -71 -76 -146 -154 -165 -175 -19 -20 -89 -94 -155 -164 -66 -71 -138
-147 -160 -171 -22 -23 -102 -107 -177 -187 -76 -79 -145 -153 -155 -165 -10
-11 -82 -87 -159 -169 -78 -82 -161 -169 -184 -194 -23 -25 -95 -101 -160
-170 -65 -69 -135 -143 -156 -165 -43 -47 -267 -284 -339 -360 -27 -29 -99
-106 -160 -170 -60 -65 -128 -137 -150 -160 -70 -74 -291 -308 -335 -355 -23
-25 -97 -103 -165 -175 -67 -71 -139 -148 -160 -170 -40 -43 -252 -268 -325
-345 -25 -26 -99 -105 -165 -175 -66 -71 -147 -156 -180 -191 -33 -34 -107
-113 -165 -174 -58 -62 -127 -136 -155 -165 -27 -30 -102 -109 -165 -176 -63
-67 -137 -146 -165 -175 -27 -29 -102 -107 -165 -174 -63 -68 -131 -140 -150
-160 -19 -20 -93 -99 -165 -175 -71 -76 -146 -155 -165 -175 -45 -47 -278
-294 -320 -340 -41 -45 -271 -288 -330 -350 -46 -48 -247 -262 -315 -335 -38
-40 -256 -272 -330 -350 -33 -35 -137 -144 -330 -350 -64 -68 -302 -320 -335
-355 -19 -20 -89 -95 -155 -165 -66 -70 -128 -135 -137 -144 -10 -8 -18 -19
-18 -23 0 -5 3523 -8 7830 -8 4307 0 7830 3 7830 6 0 3 -6 11 -12 18 -7 7 -65
68 -128 136 -63 67 -140 148 -170 180 -132 139 -291 308 -325 345 -59 63 -296
314 -335 355 -19 20 -89 94 -155 165 -66 70 -144 153 -174 184 -29 31 -101
107 -160 170 -58 62 -124 132 -146 156 -22 23 -94 99 -160 170 -66 70 -154
163 -195 206 -41 43 -115 122 -165 175 -49 54 -116 125 -149 158 -32 34 -97
103 -145 154 -47 51 -120 128 -161 171 -41 43 -127 134 -190 201 -63 68 -135
144 -160 170 -25 26 -94 100 -155 165 -60 65 -137 146 -170 180 -33 35 -109
116 -170 181 -60 64 -126 134 -145 154 -19 20 -91 97 -160 170 -69 73 -156
165 -193 204 -38 39 -106 112 -152 161 -46 50 -110 117 -142 151 -32 34 -112
119 -178 189 -66 70 -138 147 -160 170 -22 24 -96 102 -165 175 -69 73 -141
149 -160 170 -19 20 -87 93 -152 161 -64 68 -140 149 -170 180 -29 31 -105
111 -168 179 -63 67 -142 151 -175 186 -33 34 -107 113 -165 175 -58 61 -127
135 -155 164 -27 28 -97 102 -155 164 -58 62 -127 136 -155 165 -27 29 -106
112 -175 185 -69 74 -151 161 -183 195 -32 33 -106 112 -165 175 -59 63 -134
142 -167 177 -33 34 -105 111 -160 170 -55 59 -120 128 -145 154 -25 26 -99
105 -165 175 -66 71 -145 154 -175 186 -30 31 -102 108 -160 169 -110 118
-160 170 -163 169 -1 0 -12 -12 -25 -27z m85 -433 c27 -27 73 -76 103 -108 30
-32 120 -127 200 -211 80 -84 170 -179 200 -210 30 -32 111 -118 180 -191 144
-153 193 -204 261 -275 27 -28 49 -55 49 -60 0 -10 -31 -45 -208 -233 -64 -68
-133 -141 -152 -161 -33 -35 -216 -228 -340 -360 -30 -32 -107 -113 -170 -181
-63 -67 -131 -139 -151 -160 l-36 -37 -24 22 c-13 13 -71 74 -129 136 -58 61
-132 140 -165 175 -33 34 -112 118 -175 185 -63 68 -144 153 -180 190 -36 38
-110 116 -165 174 -55 59 -124 131 -153 162 -62 65 -62 75 4 144 105 111 331
353 514 550 111 120 113 122 280 300 60 63 125 134 146 158 21 23 44 42 51 42
7 0 34 -23 60 -51z m1225 -1282 c7 -8 65 -69 128 -137 63 -68 135 -145 160
-171 62 -66 245 -262 410 -439 19 -21 87 -93 150 -161 63 -67 126 -134 140
-149 67 -72 66 -68 44 -89 -10 -10 -75 -78 -144 -151 -69 -73 -141 -150 -160
-170 -19 -20 -96 -101 -170 -180 -74 -78 -155 -164 -180 -190 -25 -26 -107
-113 -183 -193 -76 -80 -155 -164 -175 -186 l-37 -41 -70 73 c-39 40 -126 133
-195 206 -69 74 -145 155 -170 181 -74 78 -285 302 -320 340 -18 19 -87 93
-154 163 -82 87 -123 139 -128 160 -7 32 -2 39 172 217 25 26 97 103 162 171
64 68 140 149 170 180 64 69 253 271 298 319 18 19 76 81 129 138 53 57 98
107 99 113 5 12 8 11 24 -4z m-2449 -73 c40 -42 92 -98 117 -124 59 -63 304
-321 355 -375 22 -23 103 -108 180 -190 77 -81 175 -184 217 -229 85 -88 102
-120 84 -153 -9 -18 -153 -175 -286 -313 -19 -20 -96 -101 -170 -180 -177
-187 -193 -204 -341 -361 -70 -74 -150 -160 -180 -191 -29 -32 -58 -58 -64
-58 -6 0 -53 46 -105 102 -52 55 -115 122 -140 148 -25 26 -99 105 -165 175
-66 70 -136 145 -155 165 -19 20 -91 97 -160 170 -122 130 -167 176 -282 298
-32 33 -58 62 -58 65 0 7 148 164 445 472 33 34 137 142 230 240 269 281 398
415 402 415 2 0 36 -34 76 -76z m-1317 -1281 c51 -56 260 -279 309 -329 28
-29 74 -78 104 -110 30 -33 112 -120 182 -194 70 -74 146 -155 169 -180 23
-25 92 -98 153 -163 62 -65 112 -123 112 -128 0 -8 -74 -90 -226 -251 -30 -31
-110 -116 -179 -189 -69 -73 -151 -160 -182 -193 -32 -33 -58 -60 -58 -62 0
-1 -30 -33 -67 -72 -138 -143 -317 -333 -329 -350 -15 -19 -22 -12 -319 303
-71 76 -146 155 -165 175 -19 20 -89 95 -155 165 -66 70 -144 153 -174 184
-168 175 -266 285 -263 295 2 6 11 18 20 27 9 9 69 71 132 139 63 67 138 146
165 175 28 30 96 103 153 163 57 61 124 132 150 160 66 70 266 282 357 380 43
45 80 82 82 82 2 0 15 -12 29 -27z m2527 -15 c22 -24 92 -99 157 -168 65 -69
132 -141 150 -160 18 -19 81 -87 140 -150 59 -63 122 -131 140 -150 50 -54
250 -267 300 -320 25 -26 64 -68 87 -93 l42 -45 -47 -50 c-26 -27 -96 -102
-157 -167 -60 -65 -130 -139 -155 -165 -39 -41 -257 -272 -330 -350 -14 -15
-86 -91 -162 -171 -75 -79 -153 -163 -175 -186 l-38 -43 -25 24 c-14 13 -68
69 -120 126 -52 56 -124 133 -160 170 -36 38 -83 88 -105 112 -22 24 -99 107
-172 183 -72 77 -145 156 -163 175 -76 82 -276 295 -292 309 -27 23 -23 33 35
93 45 48 128 136 302 322 22 24 78 84 125 133 254 269 373 396 490 521 47 50
87 92 90 92 2 0 22 -19 43 -42z m2737 -239 c69 -73 143 -151 165 -174 22 -23
96 -102 165 -175 69 -73 152 -161 185 -195 182 -191 280 -299 277 -307 -3 -10
-29 -39 -160 -177 -35 -36 -104 -109 -152 -161 -49 -52 -115 -122 -147 -156
-32 -33 -114 -121 -183 -194 -69 -73 -145 -154 -170 -180 -25 -26 -90 -95
-145 -154 l-100 -107 -79 83 c-103 109 -338 357 -447 472 -47 50 -107 114
-133 141 -26 28 -96 101 -154 163 -59 63 -139 148 -179 190 -46 47 -70 80 -65
88 4 7 66 74 137 150 72 76 164 174 206 218 42 45 91 97 109 116 18 19 89 95
159 168 69 74 144 153 166 176 22 24 94 100 160 169 l119 126 71 -73 c38 -41
126 -134 195 -207z m-6394 -1216 c208 -219 319 -336 389 -408 33 -34 121 -127
195 -205 74 -78 170 -179 213 -224 73 -75 97 -110 97 -139 0 -12 -24 -39 -235
-262 -67 -71 -139 -147 -158 -169 -38 -40 -247 -261 -332 -351 -176 -186 -276
-294 -297 -318 l-24 -27 -126 132 c-69 73 -145 153 -168 178 -70 75 -282 299
-330 350 -25 26 -97 102 -160 169 -63 68 -152 162 -197 209 -46 48 -83 92 -83
97 0 6 33 44 73 86 39 41 122 128 182 193 61 65 135 143 165 175 30 32 111
118 180 191 69 73 150 159 180 191 30 32 100 106 155 164 55 59 102 111 103
116 9 23 39 -2 178 -148z m2438 70 c80 -84 88 -92 276 -293 69 -73 141 -150
160 -170 97 -103 321 -339 364 -384 26 -28 74 -78 105 -111 32 -33 60 -67 63
-76 9 -24 -9 -48 -148 -195 -33 -35 -60 -64 -58 -64 1 0 -12 -15 -29 -33 -18
-18 -86 -91 -152 -162 -66 -70 -140 -149 -165 -175 -450 -473 -486 -510 -497
-510 -5 0 -48 42 -95 93 -47 50 -112 120 -145 154 -33 34 -110 115 -170 180
-61 65 -139 147 -173 183 -33 36 -91 97 -128 136 -37 39 -128 135 -202 213
-74 79 -139 149 -143 157 -5 9 0 22 15 37 19 20 78 82 308 327 14 14 90 95
170 180 80 84 156 165 170 180 14 15 86 91 162 171 75 79 155 165 179 192 23
26 46 47 50 47 5 0 42 -35 83 -77z m2468 64 c7 -8 69 -74 138 -147 69 -73 159
-168 201 -211 42 -43 129 -135 195 -205 65 -69 144 -152 174 -184 88 -91 297
-312 325 -344 30 -32 33 -24 -50 -111 -22 -24 -71 -76 -109 -116 -74 -79 -137
-145 -363 -384 -78 -83 -154 -163 -169 -180 -25 -28 -303 -322 -332 -352 -16
-15 -28 -10 -62 30 -14 15 -43 47 -65 71 -22 23 -94 100 -160 171 -66 70 -136
144 -155 165 -79 84 -268 286 -313 334 -26 28 -92 98 -147 156 -120 128 -148
160 -161 182 -9 17 13 46 126 164 25 27 271 287 305 324 134 144 283 301 316
336 65 67 240 256 266 286 28 32 24 31 40 15z m2587 -78 c47 -50 115 -122 151
-159 36 -38 112 -119 170 -181 58 -62 123 -131 145 -154 64 -67 289 -306 335
-355 23 -25 71 -75 106 -112 35 -37 64 -70 64 -74 0 -3 -19 -26 -42 -51 -71
-74 -137 -144 -263 -277 -66 -71 -149 -159 -185 -197 -36 -37 -112 -118 -170
-180 -58 -61 -127 -135 -154 -163 -26 -28 -93 -99 -148 -158 l-100 -106 -26
28 c-60 63 -263 278 -302 320 -23 25 -103 110 -179 189 -75 79 -149 159 -166
176 -16 18 -89 95 -161 171 -72 76 -154 164 -182 194 l-52 54 33 35 c17 19 50
53 72 76 22 23 90 95 150 159 61 65 130 139 155 165 40 43 275 292 340 361 14
15 86 91 160 169 74 78 137 147 138 152 8 20 28 5 111 -82z m-8768 -1371 c74
-77 154 -162 179 -188 25 -26 90 -96 145 -155 55 -59 132 -141 171 -181 39
-41 70 -74 69 -74 -1 0 30 -33 69 -74 234 -244 276 -291 276 -313 0 -21 -38
-68 -145 -179 -38 -40 -405 -429 -485 -514 -40 -42 -182 -194 -346 -367 l-70
-75 -35 36 c-19 19 -81 85 -139 147 -58 61 -130 137 -160 169 -30 32 -104 111
-165 176 -131 138 -151 160 -321 340 -207 219 -244 259 -244 265 0 4 26 33 58
67 31 33 100 106 152 162 52 56 115 123 140 149 61 65 298 316 390 415 41 44
89 94 105 111 17 18 71 76 120 128 50 53 93 96 96 97 4 0 67 -64 140 -142z
m2418 105 c18 -21 92 -101 164 -177 73 -77 148 -156 167 -177 19 -20 85 -91
146 -156 62 -65 126 -134 144 -153 18 -19 90 -96 160 -170 206 -217 240 -255
237 -262 -2 -6 -142 -156 -302 -324 -33 -35 -103 -109 -155 -165 -52 -55 -115
-122 -140 -148 -83 -88 -316 -335 -391 -414 l-73 -79 -64 69 c-65 69 -298 316
-362 383 -34 36 -237 251 -320 340 -23 25 -96 102 -163 173 -66 70 -128 137
-139 149 -19 22 -18 22 34 77 70 72 103 107 223 236 55 59 123 131 150 159
103 107 240 257 243 267 2 5 10 9 18 9 8 0 14 3 14 8 0 9 111 130 343 374 24
25 30 23 66 -19z m5122 -85 c63 -67 134 -143 159 -169 25 -26 97 -102 160
-170 63 -67 130 -138 149 -158 18 -20 86 -92 150 -160 130 -139 167 -178 263
-279 l67 -70 -46 -48 c-25 -27 -94 -101 -154 -164 -118 -126 -172 -183 -347
-369 -64 -68 -146 -155 -182 -192 -36 -38 -101 -107 -145 -154 -44 -47 -106
-113 -137 -146 l-57 -60 -93 97 c-51 53 -120 125 -153 159 -33 34 -132 138
-220 230 -88 92 -203 212 -255 266 -259 269 -355 371 -355 379 0 8 117 135
297 321 40 42 145 152 233 244 88 93 178 187 200 210 22 23 107 112 190 198
82 86 152 157 156 157 3 0 57 -55 120 -122z m-2530 -19 c68 -73 160 -170 204
-217 44 -47 98 -104 120 -127 22 -23 92 -97 155 -165 63 -68 138 -147 165
-176 28 -29 97 -103 155 -165 58 -61 111 -118 118 -125 18 -18 15 -34 -10 -58
-13 -12 -81 -84 -153 -160 -71 -76 -150 -160 -175 -186 -25 -26 -91 -96 -147
-156 -56 -60 -125 -134 -155 -165 -67 -70 -289 -307 -355 -377 l-50 -53 -99
106 c-54 59 -121 130 -149 159 -27 29 -88 95 -135 146 -47 51 -101 110 -120
130 -19 20 -78 83 -130 140 -52 57 -111 120 -130 140 -41 43 -186 200 -247
268 -24 26 -43 50 -43 54 0 6 57 69 170 188 30 31 102 108 160 169 58 62 128
136 155 165 28 29 106 113 175 186 69 73 143 152 165 175 22 23 81 86 130 139
50 53 93 96 96 96 3 0 62 -59 130 -131z m5045 -6 c71 -75 147 -155 169 -178
51 -54 298 -316 348 -369 21 -23 96 -102 167 -176 220 -232 250 -265 247 -272
-2 -5 -136 -150 -277 -298 -25 -26 -92 -98 -150 -159 -58 -62 -130 -139 -160
-170 -30 -32 -113 -121 -185 -196 -71 -76 -160 -170 -197 -209 -38 -38 -68
-73 -68 -77 0 -24 -35 -11 -81 33 -148 137 -176 165 -404 413 -49 54 -106 115
-125 135 -19 21 -75 82 -125 135 -49 54 -105 114 -124 134 -229 246 -240 260
-215 295 12 17 147 162 309 331 126 132 345 362 400 420 172 183 329 345 335
345 3 0 64 -62 136 -137z m-11228 -1401 c63 -66 138 -147 169 -179 30 -32 85
-90 121 -129 189 -199 362 -382 404 -425 26 -27 44 -50 40 -50 -4 -1 -433 -2
-954 -3 -848 -1 -945 0 -935 14 7 8 32 36 57 61 60 62 405 421 455 474 22 23
130 135 239 248 l200 206 45 -48 c25 -27 97 -103 159 -169z m2487 -8 c22 -23
93 -98 157 -166 64 -67 143 -151 175 -184 94 -100 305 -323 343 -363 19 -20
40 -43 47 -52 10 -13 -102 -14 -933 -14 -519 0 -943 3 -942 6 3 6 148 162 326
348 35 36 105 110 155 164 51 54 128 137 172 183 44 46 127 133 184 193 l103
110 87 -91 c47 -50 104 -110 126 -134z m2573 -43 c75 -80 151 -159 167 -177
17 -17 75 -79 130 -136 252 -264 390 -410 393 -417 2 -5 -1838 -8 -1885 -2 -7
0 11 25 40 54 44 44 151 157 422 443 213 224 331 349 399 421 l80 83 58 -62
c32 -35 120 -128 196 -207z m2491 23 c40 -44 142 -151 225 -238 83 -88 167
-176 186 -196 19 -21 94 -99 165 -175 72 -75 131 -140 133 -144 2 -5 -1826 -8
-1876 -2 -8 0 8 23 35 49 26 27 104 109 173 182 69 73 153 163 188 199 34 36
100 106 146 156 47 49 126 133 176 185 50 52 119 125 153 163 l62 67 80 -84
c44 -46 113 -119 154 -162z m2447 70 c229 -242 245 -258 349 -369 55 -58 134
-141 175 -184 41 -43 116 -122 165 -176 50 -53 91 -98 92 -99 1 -1 -423 -1
-943 -1 -519 0 -944 2 -944 5 0 3 32 39 71 80 40 41 133 140 208 219 75 79
154 163 176 186 129 138 298 317 353 373 34 35 62 66 62 68 0 2 17 19 38 38
30 29 39 33 48 21 5 -7 73 -80 150 -161z m2603 -94 c76 -80 153 -161 171 -180
18 -19 94 -100 169 -180 76 -80 169 -178 207 -219 38 -41 86 -91 106 -112 21
-21 34 -40 30 -42 -6 -3 -1871 -2 -1881 2 -2 0 24 29 57 64 33 34 78 81 99
103 32 35 201 213 363 384 72 76 282 299 356 378 l67 72 59 -62 c32 -35 121
-128 197 -208z"/>
</g>
</svg>
